<?xml version="1.0" encoding="utf-8"?>
<!-- Generator: Adobe Illustrator 26.2.1, SVG Export Plug-In . SVG Version: 6.00 Build 0)  -->
<svg version="1.1" id="Ebene_1" xmlns="http://www.w3.org/2000/svg" xmlns:xlink="http://www.w3.org/1999/xlink" x="0px" y="0px"
	 viewBox="0 0 512 512" style="enable-background:new 0 0 512 512;" xml:space="preserve">
<style type="text/css">
	.st0{fill:#FFFFFF;}
</style>
<path class="st0" d="M0,384V128c0-53,43-96,96-96h72c13.3,0,24,10.7,24,24c0,13.3-10.8,24-24,24H96c-26.4,0-48,21.6-48,48v256
	c0,26.4,21.6,48,48,48h72c13.3,0,24,10.8,24,24c0,13.3-10.7,24-24,24H96C43,480,0,437,0,384z M166.5,272.4l128,136
	c9.1,9.7,24.3,10.2,33.9,1.1c9.7-9.1,10.2-24.3,1.1-33.9L239.6,280H488c13.2,0,24-10.8,24-24c0-13.2-10.8-24-24-24H239.6l89.9-95.6
	c9.1-9.7,8.6-24.8-1-33.9c-4.7-4.3-10.6-6.5-16.5-6.5c-6.4,0-12.8,2.5-17.5,7.6l-128,136C157.8,248.8,157.8,263.2,166.5,272.4z"/>
</svg>
